<?xml version="1.0" encoding="UTF-8"?>
<svg xmlns="http://www.w3.org/2000/svg" xmlns:xlink="http://www.w3.org/1999/xlink" width="1125pt" height="1125pt" viewBox="0 0 1125 1125" version="1.1">
<defs>
<clipPath id="clip1">
  <path d="M 0 0 L 1125 0 L 1125 1125 L 0 1125 Z M 0 0 "/>
</clipPath>
<linearGradient id="linear0" gradientUnits="userSpaceOnUse" x1="-6.921875" y1="301.179688" x2="133.871094" y2="301.179688" gradientTransform="matrix(-0.562013,-0.49663,-0.49663,0.562013,312.411609,85.107729)">
<stop offset="0" style="stop-color:rgb(15.686275%,15.686275%,50.980392%);stop-opacity:1;"/>
<stop offset="0.0443" style="stop-color:rgb(16.862745%,18.823529%,52.54902%);stop-opacity:1;"/>
<stop offset="0.3791" style="stop-color:rgb(26.666667%,43.137255%,67.45098%);stop-opacity:1;"/>
<stop offset="0.5275" style="stop-color:rgb(31.372549%,53.72549%,74.901961%);stop-opacity:1;"/>
<stop offset="1" style="stop-color:rgb(31.372549%,53.72549%,74.901961%);stop-opacity:1;"/>
</linearGradient>
<filter id="alpha" filterUnits="objectBoundingBox" x="0%" y="0%" width="100%" height="100%">
  <feColorMatrix type="matrix" in="SourceGraphic" values="0 0 0 0 1 0 0 0 0 1 0 0 0 0 1 0 0 0 1 0"/>
</filter>
<mask id="mask0">
  <g filter="url(#alpha)">
<rect x="0" y="0" width="1125" height="1125" style="fill:rgb(100%,100%,100%);fill-opacity:0.586957;stroke:none;"/>
  </g>
</mask>
<clipPath id="clip2">
  <rect width="1125" height="1125"/>
</clipPath>
<g id="surface1" clip-path="url(#clip2)">
<path style=" stroke:none;fill-rule:nonzero;fill:rgb(51.764706%,50.588235%,74.509804%);fill-opacity:1;" d="M 243.910156 136.414063 C 246.4375 128.855469 252.070313 123.574219 258.671875 123.5 C 265.269531 123.417969 271.03125 128.5625 273.738281 136.054688 C 272.746094 126.058594 266.3125 118.371094 258.609375 118.460938 C 250.914063 118.558594 244.660156 126.394531 243.910156 136.414063 Z M 243.910156 136.414063 "/>
<path style=" stroke:none;fill-rule:nonzero;fill:rgb(43.529412%,43.137255%,69.803922%);fill-opacity:1;" d="M 259.101563 132.230469 C 264.21875 132.171875 268.433594 137.683594 268.515625 144.539063 C 268.597656 151.402344 264.519531 157.003906 259.402344 157.070313 C 254.289063 157.132813 250.074219 151.625 249.992188 144.765625 C 249.910156 137.910156 253.988281 132.300781 259.101563 132.230469 Z M 259.101563 132.230469 "/>
<path style=" stroke:none;fill-rule:nonzero;fill:rgb(51.764706%,50.588235%,74.509804%);fill-opacity:1;" d="M 237.625 129.964844 C 241.203125 119.261719 249.175781 111.777344 258.527344 111.664063 C 267.878906 111.554688 276.03125 118.84375 279.871094 129.449219 C 278.460938 115.296875 269.34375 104.40625 258.445313 104.539063 C 247.539063 104.667969 238.691406 115.777344 237.625 129.964844 Z M 237.625 129.964844 "/>
<path style=" stroke:none;fill-rule:nonzero;fill:rgb(51.764706%,50.588235%,74.509804%);fill-opacity:1;" d="M 232.195313 120.757813 C 237.128906 108.117188 246.957031 99.457031 258.378906 99.3125 C 269.800781 99.179688 279.835938 107.59375 285.070313 120.109375 C 283.335938 102.351563 271.914063 88.679688 258.25 88.84375 C 244.585938 89.007813 233.5 102.957031 232.195313 120.757813 Z M 232.195313 120.757813 "/>
</g>
<linearGradient id="linear1" gradientUnits="userSpaceOnUse" x1="160.589844" y1="358.152344" x2="160.589844" y2="-2.597656" gradientTransform="matrix(0.75,0,0,0.75,-88.5,97.5)">
<stop offset="0" style="stop-color:rgb(9.411765%,55.686275%,80.784314%);stop-opacity:1;"/>
<stop offset="0.1065" style="stop-color:rgb(8.627451%,53.72549%,79.215686%);stop-opacity:1;"/>
<stop offset="0.2834" style="stop-color:rgb(6.27451%,47.843137%,74.901961%);stop-opacity:1;"/>
<stop offset="0.5079" style="stop-color:rgb(4.313725%,39.607843%,68.627451%);stop-opacity:1;"/>
<stop offset="0.5165" style="stop-color:rgb(2.745098%,39.607843%,68.627451%);stop-opacity:1;"/>
<stop offset="1" style="stop-color:rgb(18.039216%,21.176471%,56.078431%);stop-opacity:1;"/>
</linearGradient>
<linearGradient id="linear2" gradientUnits="userSpaceOnUse" x1="413.222656" y1="2.902344" x2="413.222656" y2="372.003906" >
<stop offset="0" style="stop-color:rgb(43.137255%,71.372549%,89.411765%);stop-opacity:1;"/>
<stop offset="0.1159" style="stop-color:rgb(39.215686%,68.235294%,87.843137%);stop-opacity:1;"/>
<stop offset="0.3084" style="stop-color:rgb(29.803922%,60.392157%,83.137255%);stop-opacity:1;"/>
<stop offset="0.5527" style="stop-color:rgb(7.843137%,49.411765%,76.470588%);stop-opacity:1;"/>
<stop offset="0.5674" style="stop-color:rgb(4.313725%,49.019608%,75.686275%);stop-opacity:1;"/>
<stop offset="1" style="stop-color:rgb(2.745098%,36.078431%,66.27451%);stop-opacity:1;"/>
</linearGradient>
<linearGradient id="linear3" gradientUnits="userSpaceOnUse" x1="556.292969" y1="197.707031" x2="250.613281" y2="197.707031" >
<stop offset="1" style="stop-color:rgb(100%,100%,100%);stop-opacity:1;"/>
<stop offset="1" style="stop-color:rgb(0%,0%,0%);stop-opacity:1;"/>
</linearGradient>
</defs>
<g id="surface0">
<g clip-path="url(#clip1)" clip-rule="nonzero">
<path style=" stroke:none;fill-rule:evenodd;fill:rgb(100%,100%,100%);fill-opacity:1;" d="M 0 0 L 1125 0 L 1125 1125 L 0 1125 Z M 0 0 "/>
<path style=" stroke:none;fill-rule:nonzero;fill:url(#linear0);" d="M 102.621094 212.046875 C 102.621094 212.046875 103.5 212.816406 113.835938 221.953125 C 142.355469 247.160156 161.363281 242.816406 161.363281 242.816406 L 189.277344 211.226563 C 189.277344 211.226563 125.007813 231.824219 102.621094 212.046875 Z M 102.621094 212.046875 "/>
<path style=" stroke:none;fill-rule:nonzero;fill:rgb(2.745098%,15.294118%,41.176471%);fill-opacity:1;" d="M 99.1875 200.242188 L 203.664063 212.664063 C 211.035156 213.914063 223.328125 231.316406 238.074219 235.058594 C 237.464844 212.046875 235.453125 179.648438 233.609375 162.226563 C 233.609375 162.226563 223.132813 158.820313 202.304688 161.578125 C 181.46875 164.316406 101.308594 182.773438 101.308594 182.773438 L 99.1875 200.242188 Z M 99.1875 200.242188 "/>
<path style=" stroke:none;fill-rule:nonzero;fill:rgb(2.745098%,15.294118%,41.176471%);fill-opacity:1;" d="M 114.089844 227.835938 C 122.023438 230.511719 120.847656 236.691406 122.683594 246.496094 C 122.683594 246.496094 164.398438 268.636719 182.378906 278.886719 C 181.835938 275.332031 181.320313 270.433594 181.417969 265.824219 C 181.417969 265.558594 181.433594 265.34375 181.441406 265.09375 C 181.449219 264.886719 181.453125 264.683594 181.46875 264.472656 C 181.90625 253.613281 185.664063 247.84375 193.664063 251.378906 C 201.039063 254.65625 200.585938 278.664063 204.261719 285.1875 C 210.269531 287.054688 225.929688 292.175781 245.28125 295.441406 C 272.015625 298.710938 322.261719 292.648438 338.859375 285.660156 C 336.539063 291.710938 281.242188 303.375 245.28125 301.5 C 234.367188 299.023438 223.558594 296.429688 215.296875 294.425781 C 213.023438 297.699219 209.804688 299.332031 209.804688 299.332031 C 205.183594 300.261719 196.898438 301.507813 192 298.710938 C 187.566406 296.203125 184.898438 290.183594 183.511719 284.722656 L 125.746094 250.335938 C 122.789063 250.621094 118.289063 250.738281 117.039063 249.988281 C 114.742188 248.59375 114.742188 247.769531 114.179688 245.902344 C 114.179688 245.902344 111.757813 246.367188 110.023438 245.09375 C 108.953125 244.320313 108.414063 242.265625 108.21875 239.933594 L 100.980469 233.804688 C 102.929688 235.378906 105.433594 237.285156 107.566406 238.476563 C 107.242188 235.53125 106.253906 225.203125 114.089844 227.835938 Z M 100.980469 233.804688 C 99.140625 232.296875 97.816406 231.105469 97.816406 231.105469 L 100.980469 233.804688 Z M 100.980469 233.804688 "/>
<path style="fill-rule:nonzero;fill:rgb(34.509804%,34.901961%,35.686275%);fill-opacity:1;stroke-width:1;stroke-linecap:butt;stroke-linejoin:miter;stroke:rgb(24.705882%,24.705882%,24.705882%);stroke-opacity:1;stroke-miterlimit:10;" d="M 338.817708 177.880208 C 460.432292 217.848958 222.619792 257.182292 269.880208 259.682292 L 498.989583 219.859375 C 498.989583 219.859375 402.239583 191.5625 338.817708 177.880208 Z M 338.817708 177.880208 " transform="matrix(0.75,0,0,0.75,80.25,160.5)"/>
<path style=" stroke:none;fill-rule:nonzero;fill:rgb(2.745098%,15.294118%,41.176471%);fill-opacity:1;" d="M 327.921875 170.550781 C 306.609375 163.597656 242.871094 159.148438 239.664063 161.46875 C 240.234375 166.449219 244.207031 214.539063 244.824219 239.398438 C 244.824219 239.398438 249.441406 239.273438 256.65625 239.015625 C 257.949219 237.667969 259.816406 236.167969 262.378906 235.199219 C 273.121094 233.101563 301.792969 232.636719 301.792969 232.636719 C 301.792969 232.636719 302.949219 233.804688 301.558594 234.976563 L 267.292969 238.003906 C 267.292969 238.003906 265.65625 238.003906 265.890625 237.066406 C 264.546875 237.246094 263.550781 237.96875 262.84375 238.800781 C 273.984375 238.371094 288.789063 237.765625 302.894531 236.984375 C 303.765625 235.6875 305.003906 234.277344 306.660156 233.339844 C 313.867188 231.234375 332.558594 231.015625 332.558594 231.015625 C 332.558594 231.015625 333.960938 231.9375 333.023438 233.101563 L 309.832031 235.679688 C 309.832031 235.679688 308.851563 236.136719 309 235.199219 C 308.191406 235.371094 307.550781 236.003906 307.078125 236.753906 C 318.398438 236.085938 330.425781 235.921875 337.90625 235.050781 C 337.914063 235.050781 333.90625 189.1875 327.921875 170.550781 Z M 327.921875 170.550781 "/>
<path style=" stroke:none;fill-rule:nonzero;fill:rgb(42.745098%,43.529412%,44.313725%);fill-opacity:1;" d="M 227.339844 333.316406 L 195.691406 333.316406 C 206.796875 340.484375 218.503906 347.371094 230.691406 353.722656 L 286.011719 354.34375 C 286.011719 354.34375 262.90625 349.289063 227.339844 333.316406 Z M 163.558594 298.898438 L 148.261719 298.898438 C 158.183594 306.929688 168.960938 315.113281 180.503906 323.160156 L 206.121094 323.160156 C 192.945313 316.460938 178.636719 308.445313 163.558594 298.898438 Z M 124.664063 271.867188 L 117.082031 271.867188 C 124.386719 278.640625 132.644531 285.96875 141.742188 293.535156 L 155.257813 293.535156 C 145.304688 286.988281 135.082031 279.789063 124.664063 271.867188 Z M 80.25 234.367188 C 80.25 234.367188 92.339844 248.574219 113.339844 268.363281 L 120.113281 268.363281 C 107.015625 258.195313 93.660156 246.914063 80.25 234.367188 Z M 80.25 234.367188 "/>
<use xlink:href="#surface1" mask="url(#mask0)"/>
<path style=" stroke:none;fill-rule:nonzero;fill:url(#linear1);" d="M 108.324219 325.484375 L 262.449219 378.953125 C 32.300781 255.148438 99.921875 212.550781 95.519531 171.367188 C 209.300781 162.113281 186.066406 144.644531 245.28125 153.953125 C 222.539063 132.113281 246.613281 58.933594 193.566406 56.789063 C 25.882813 52.507813 34.824219 250.664063 108.324219 325.484375 Z M 108.324219 325.484375 "/>
<path style="fill-rule:nonzero;fill:url(#linear2);stroke-width:1;stroke-linecap:butt;stroke-linejoin:miter;stroke:url(#linear3);stroke-miterlimit:10;" d="M 350.618304 158.489584 C 405.227679 138.239584 444.311012 283.880209 398.59747 343.119793 L 553.748512 383.119793 C 372.462054 255.989584 501.758929 233.328126 474.90997 78.348959 C 323.962054 -59.171874 157.62872 59.401043 313.977679 53.708334 C 430.889137 143.119793 215.592262 172.000001 350.618304 158.489584 Z M 350.618304 158.489584 " transform="matrix(0.75,0,0,0.75,45.321429,33.749999)"/>
</g>
</g>
</svg>
